<svg xmlns="http://www.w3.org/2000/svg" xmlns:xlink="http://www.w3.org/1999/xlink" width="100" zoomAndPan="magnify" viewBox="0 0 75 60" height="80" preserveAspectRatio="xMidYMid meet" version="1.0"><defs><clipPath id="id1"><path d="M 9 0 L 63 0 L 63 38.550781 L 9 38.550781 Z M 9 0 " clip-rule="nonzero"/></clipPath><clipPath id="id2"><path d="M 36 9 L 61.515625 9 L 61.515625 44.699219 L 36 44.699219 Z M 36 9 " clip-rule="nonzero"/></clipPath><clipPath id="id3"><path d="M 36 1.199219 L 56 1.199219 L 56 44.699219 L 36 44.699219 Z M 36 1.199219 " clip-rule="nonzero"/></clipPath><clipPath id="id4"><path d="M 36 5 L 59 5 L 59 44.699219 L 36 44.699219 Z M 36 5 " clip-rule="nonzero"/></clipPath><clipPath id="id5"><path d="M 10.515625 9 L 36 9 L 36 44.699219 L 10.515625 44.699219 Z M 10.515625 9 " clip-rule="nonzero"/></clipPath><clipPath id="id6"><path d="M 16 1.199219 L 36 1.199219 L 36 44.699219 L 16 44.699219 Z M 16 1.199219 " clip-rule="nonzero"/></clipPath><clipPath id="id7"><path d="M 13 5 L 36 5 L 36 44.699219 L 13 44.699219 Z M 13 5 " clip-rule="nonzero"/></clipPath></defs><path fill="#000000" d="M 73.292969 37.929688 C 72.542969 36.371094 71.269531 35.558594 69.800781 35.25 C 70.183594 34.902344 70.503906 34.480469 70.800781 34 C 71.503906 32.851562 71.8125 31.496094 71.839844 30.160156 C 71.898438 27.410156 70.769531 24.632812 69.039062 22.519531 C 65.738281 18.492188 59.742188 18.535156 55.386719 20.992188 C 55.855469 18.664062 55.546875 16.132812 54.226562 14.183594 C 52.6875 11.886719 50.078125 10.664062 47.394531 10.242188 C 41.75 9.371094 34.710938 11.246094 31.042969 15.800781 C 29.695312 17.457031 29.167969 19.261719 29.328125 21.125 C 28.886719 20.804688 28.417969 20.515625 28.007812 20.265625 C 26.820312 19.582031 25.515625 19.117188 24.152344 18.929688 C 21.351562 18.550781 18.285156 19.453125 16.117188 21.253906 C 14.429688 22.652344 12.890625 24.761719 12.304688 26.871094 C 12.054688 27.746094 11.921875 28.804688 12.273438 29.664062 C 12.289062 29.707031 12.316406 29.753906 12.332031 29.808594 C 5.410156 26.929688 -2.726562 38.21875 2.316406 44.316406 C 4.339844 46.757812 7.582031 47.691406 10.644531 48.097656 C 11.1875 52.390625 13.578125 56.128906 17.65625 57.960938 C 21.644531 59.765625 26.441406 59.578125 30.164062 57.234375 C 31.820312 56.1875 33.113281 54.804688 34.109375 53.203125 C 37.394531 57.992188 43.082031 61.121094 48.933594 58.632812 C 52.511719 57.105469 56.691406 53.191406 57.335938 49.03125 C 60.710938 51.429688 65.886719 51.503906 69.40625 49.523438 C 73.304688 47.328125 75.269531 42.015625 73.292969 37.929688 Z M 70.316406 45.507812 C 68.789062 47.605469 66.164062 48.332031 63.6875 48.230469 C 60.988281 48.113281 58.640625 46.773438 57.042969 44.648438 C 56.691406 44.183594 56.207031 44.023438 55.78125 44.066406 C 55.019531 43.9375 54.125 44.5625 54.417969 45.480469 C 55.179688 47.792969 54.757812 49.84375 53.390625 51.835938 C 52.058594 53.773438 50.035156 55.417969 47.835938 56.289062 C 42.613281 58.371094 37.453125 54.675781 35.105469 50.148438 C 34.578125 49.132812 33.273438 49.566406 32.90625 50.441406 C 31 54.964844 26.277344 57.351562 21.453125 56.695312 C 16.554688 56.042969 12.757812 52.230469 12.421875 47.285156 C 12.390625 46.746094 12.023438 46.425781 11.496094 46.367188 C 7.375 45.902344 2.054688 44.054688 2.492188 39.050781 C 2.785156 35.671875 5.367188 32.328125 8.460938 30.972656 C 10.222656 30.203125 12.273438 30.175781 13.886719 31.308594 C 14.09375 31.453125 14.355469 31.121094 14.164062 30.945312 C 14.0625 30.859375 13.976562 30.785156 13.871094 30.710938 C 13.84375 30.144531 13.460938 29.636719 13.460938 29.011719 C 13.445312 28.152344 13.785156 27.351562 14.152344 26.59375 C 14.914062 25.039062 16.070312 23.480469 17.496094 22.464844 C 19.34375 21.140625 21.878906 20.46875 24.121094 20.921875 C 25.25 21.152344 26.292969 21.621094 27.246094 22.246094 C 28.316406 22.941406 29.09375 23.976562 30.136719 24.675781 C 30.984375 25.242188 31.851562 24.164062 31.453125 23.367188 C 31.265625 22.972656 30.984375 22.609375 30.664062 22.257812 C 30.429688 18.070312 34.152344 14.78125 37.980469 13.339844 C 42.085938 11.800781 48.523438 11.027344 51.808594 14.664062 C 53.921875 16.992188 53.203125 20.089844 52.820312 22.871094 C 52.820312 22.886719 52.820312 22.898438 52.820312 22.914062 C 52.746094 22.988281 52.6875 23.046875 52.613281 23.117188 C 52.234375 23.523438 52.734375 24.222656 53.230469 23.902344 C 53.246094 23.890625 53.273438 23.875 53.289062 23.859375 C 53.671875 24.136719 54.214844 24.121094 54.492188 23.570312 C 54.582031 23.410156 54.652344 23.234375 54.726562 23.058594 C 58.65625 21.125 64.082031 20.265625 67.089844 23.859375 C 68.410156 25.429688 69.273438 27.554688 69.332031 29.605469 C 69.40625 31.964844 68.1875 33.289062 66.574219 34.816406 C 66.105469 35.25 66.253906 35.820312 66.648438 36.140625 C 66.738281 36.34375 66.925781 36.503906 67.234375 36.488281 C 72.222656 36.402344 72.589844 42.367188 70.316406 45.507812 Z M 70.316406 45.507812 " fill-opacity="1" fill-rule="nonzero"/><g clip-path="url(#id1)"><path fill="#ffffff" d="M 9 -3.449219 L 63 -3.449219 L 63 38.546875 L 9 38.546875 L 9 -3.449219 " fill-opacity="1" fill-rule="nonzero"/></g><g clip-path="url(#id2)"><path fill="#100f0d" d="M 58.628906 9.214844 C 58.628906 9.960938 58.628906 10.707031 58.628906 11.449219 C 58.878906 11.527344 59.125 11.609375 59.367188 11.691406 C 59.367188 21.675781 59.367188 31.660156 59.367188 41.648438 C 55.496094 40.335938 51.4375 39.78125 47.40625 39.984375 C 43.707031 40.753906 40.011719 42.339844 36.527344 44.695312 C 44.527344 41.339844 53.511719 41.339844 61.511719 44.695312 C 61.511719 33.21875 61.511719 21.742188 61.511719 10.265625 C 60.5625 9.867188 59.601562 9.519531 58.628906 9.214844 " fill-opacity="1" fill-rule="nonzero"/></g><g clip-path="url(#id3)"><path fill="#100f0d" d="M 38.183594 40.925781 C 43.371094 36.394531 48.984375 33.949219 54.171875 33.960938 C 54.171875 23.976562 54.171875 13.992188 54.171875 4.003906 C 48.984375 3.992188 43.371094 6.4375 38.183594 10.96875 C 38.183594 20.957031 38.183594 30.941406 38.183594 40.925781 Z M 55.828125 36.289062 C 49.648438 35.625 42.707031 38.648438 36.527344 44.695312 C 36.527344 33.21875 36.527344 21.742188 36.527344 10.265625 C 42.707031 4.222656 49.648438 1.195312 55.828125 1.859375 C 55.828125 13.335938 55.828125 24.8125 55.828125 36.289062 " fill-opacity="1" fill-rule="nonzero"/></g><g clip-path="url(#id4)"><path fill="#100f0d" d="M 55.828125 5.234375 C 55.828125 5.976562 55.828125 6.722656 55.828125 7.464844 C 56.128906 7.507812 56.433594 7.558594 56.734375 7.613281 C 56.734375 17.597656 56.734375 27.585938 56.734375 37.570312 C 53.210938 36.933594 49.511719 37.128906 45.847656 38.121094 C 42.679688 39.554688 39.511719 41.773438 36.527344 44.695312 C 43.605469 39.910156 51.554688 38.308594 58.628906 40.234375 C 58.628906 28.757812 58.628906 17.28125 58.628906 5.804688 C 57.707031 5.554688 56.773438 5.363281 55.828125 5.234375 " fill-opacity="1" fill-rule="nonzero"/></g><g clip-path="url(#id5)"><path fill="#100f0d" d="M 13.402344 9.214844 C 13.402344 9.960938 13.402344 10.707031 13.402344 11.449219 C 13.152344 11.527344 12.90625 11.609375 12.660156 11.691406 C 12.660156 21.675781 12.660156 31.660156 12.660156 41.648438 C 16.535156 40.335938 20.59375 39.78125 24.621094 39.984375 C 28.320312 40.753906 32.019531 42.339844 35.503906 44.695312 C 27.503906 41.339844 18.515625 41.339844 10.519531 44.695312 C 10.519531 33.21875 10.519531 21.742188 10.519531 10.265625 C 11.46875 9.867188 12.429688 9.519531 13.402344 9.214844 " fill-opacity="1" fill-rule="nonzero"/></g><g clip-path="url(#id6)"><path fill="#100f0d" d="M 33.847656 10.96875 C 28.660156 6.4375 23.046875 3.992188 17.859375 4.003906 C 17.859375 13.992188 17.859375 23.976562 17.859375 33.960938 C 23.046875 33.949219 28.660156 36.394531 33.847656 40.925781 C 33.847656 30.941406 33.847656 20.957031 33.847656 10.96875 Z M 16.203125 1.859375 C 22.382812 1.195312 29.324219 4.222656 35.503906 10.265625 C 35.503906 21.742188 35.503906 33.21875 35.503906 44.695312 C 29.324219 38.648438 22.382812 35.625 16.203125 36.289062 C 16.203125 24.8125 16.203125 13.335938 16.203125 1.859375 " fill-opacity="1" fill-rule="nonzero"/></g><g clip-path="url(#id7)"><path fill="#100f0d" d="M 16.203125 5.234375 C 16.203125 5.976562 16.203125 6.722656 16.203125 7.464844 C 15.902344 7.507812 15.597656 7.558594 15.296875 7.613281 C 15.296875 17.597656 15.296875 27.585938 15.296875 37.570312 C 18.820312 36.933594 22.519531 37.128906 26.183594 38.121094 C 29.351562 39.554688 32.515625 41.773438 35.503906 44.695312 C 28.425781 39.910156 20.476562 38.308594 13.402344 40.234375 C 13.402344 28.757812 13.402344 17.28125 13.402344 5.804688 C 14.320312 5.554688 15.257812 5.363281 16.203125 5.234375 " fill-opacity="1" fill-rule="nonzero"/></g></svg>